{
  "accessors": [
    {
      "bufferView": 2,
      "componentType": 5126,
      "count": 65532,
      "max": [
        32.228107452392578,
        -304.38833618164062,
        466.27447509765625
      ],
      "min": [
        -78.897842407226562,
        -638.039794921875,
        8.3336420059204102
      ],
      "type": "VEC3"
    },
    {
      "bufferView": 2,
      "byteOffset": 786384,
      "componentType": 5126,
      "count": 65532,
      "max": [
        0.9999997615814209,
        0.99896919727325439,
        0.99318838119506836
      ],
      "min": [
        -0.99999988079071045,
        -0.99999547004699707,
        -0.99999934434890747
      ],
      "type": "VEC3"
    },
    {
      "bufferView": 3,
      "componentType": 5126,
      "count": 65532,
      "max": [
        0.98330241441726685,
        0.94351756572723389,
        0.9998859167098999,
        1
      ],
      "min": [
        -0.99937212467193604,
        -0.99655312299728394,
        -0.96381443738937378,
        1
      ],
      "type": "VEC4"
    },
    {
      "bufferView": 1,
      "componentType": 5126,
      "count": 65532,
      "max": [
        0.98913401365280151,
        0.91372299194335938
      ],
      "min": [
        0.020148999989032745,
        0.0058419997803866863
      ],
      "type": "VEC2"
    },
    {
      "bufferView": 0,
      "componentType": 5125,
      "count": 332124,
      "max": [
        65531
      ],
      "min": [
        0
      ],
      "type": "SCALAR"
    },
    {
      "bufferView": 2,
      "byteOffset": 1572768,
      "componentType": 5126,
      "count": 65532,
      "max": [
        36.877204895019531,
        -302.12832641601562,
        442.03475952148438
      ],
      "min": [
        -79.734619140625,
        -625.686767578125,
        8.5272121429443359
      ],
      "type": "VEC3"
    },
    {
      "bufferView": 2,
      "byteOffset": 2359152,
      "componentType": 5126,
      "count": 65532,
      "max": [
        0.99997353553771973,
        0.99999785423278809,
        0.99999749660491943
      ],
      "min": [
        -0.99999910593032837,
        -0.99999445676803589,
        -0.99998897314071655
      ],
      "type": "VEC3"
    },
    {
      "bufferView": 3,
      "byteOffset": 1048512,
      "componentType": 5126,
      "count": 65532,
      "max": [
        0.99988353252410889,
        0.99546635150909424,
        0.99993360042572021,
        1
      ],
      "min": [
        -0.99948322772979736,
        -0.99616366624832153,
        -0.94682234525680542,
        1
      ],
      "type": "VEC4"
    },
    {
      "bufferView": 1,
      "byteOffset": 524256,
      "componentType": 5126,
      "count": 65532,
      "max": [
        0.99800801277160645,
        0.89313399791717529
      ],
      "min": [
        0.0019920000340789557,
        0.0036289999261498451
      ],
      "type": "VEC2"
    },
    {
      "bufferView": 0,
      "byteOffset": 1328496,
      "componentType": 5125,
      "count": 327555,
      "max": [
        65531
      ],
      "min": [
        0
      ],
      "type": "SCALAR"
    },
    {
      "bufferView": 2,
      "byteOffset": 3145536,
      "componentType": 5126,
      "count": 65532,
      "max": [
        36.577899932861328,
        -303.10693359375,
        467.02883911132812
      ],
      "min": [
        -78.781265258789062,
        -638.90093994140625,
        9.8670949935913086
      ],
      "type": "VEC3"
    },
    {
      "bufferView": 2,
      "byteOffset": 3931920,
      "componentType": 5126,
      "count": 65532,
      "max": [
        0.99999815225601196,
        0.99999713897705078,
        0.99984008073806763
      ],
      "min": [
        -0.99997884035110474,
        -0.99995869398117065,
        -0.99999964237213135
      ],
      "type": "VEC3"
    },
    {
      "bufferView": 3,
      "byteOffset": 2097024,
      "componentType": 5126,
      "count": 65532,
      "max": [
        0.99883794784545898,
        0.98765617609024048,
        0.9999052882194519,
        1
      ],
      "min": [
        -0.99995583295822144,
        -0.99348032474517822,
        -0.99050849676132202,
        1
      ],
      "type": "VEC4"
    },
    {
      "bufferView": 1,
      "byteOffset": 1048512,
      "componentType": 5126,
      "count": 65532,
      "max": [
        0.99800801277160645,
        0.92571902275085449
      ],
      "min": [
        0.014543999917805195,
        0.0018479999853298068
      ],
      "type": "VEC2"
    },
    {
      "bufferView": 0,
      "byteOffset": 2638716,
      "componentType": 5125,
      "count": 316323,
      "max": [
        65531
      ],
      "min": [
        0
      ],
      "type": "SCALAR"
    },
    {
      "bufferView": 2,
      "byteOffset": 4718304,
      "componentType": 5126,
      "count": 65532,
      "max": [
        36.81988525390625,
        -302.12832641601562,
        467.02883911132812
      ],
      "min": [
        -79.80828857421875,
        -638.365234375,
        8.3336420059204102
      ],
      "type": "VEC3"
    },
    {
      "bufferView": 2,
      "byteOffset": 5504688,
      "componentType": 5126,
      "count": 65532,
      "max": [
        0.99999910593032837,
        0.99998438358306885,
        0.99995237588882446
      ],
      "min": [
        -0.99999898672103882,
        -0.99992585182189941,
        -0.9999205470085144
      ],
      "type": "VEC3"
    },
    {
      "bufferView": 3,
      "byteOffset": 3145536,
      "componentType": 5126,
      "count": 65532,
      "max": [
        0.99736994504928589,
        0.97305506467819214,
        0.99988150596618652,
        1
      ],
      "min": [
        -0.99986326694488525,
        -0.99978458881378174,
        -0.99923968315124512,
        1
      ],
      "type": "VEC4"
    },
    {
      "bufferView": 1,
      "byteOffset": 1572768,
      "componentType": 5126,
      "count": 65532,
      "max": [
        0.99800801277160645,
        0.9257349967956543
      ],
      "min": [
        0.0019920000340789557,
        0.0018479999853298068
      ],
      "type": "VEC2"
    },
    {
      "bufferView": 0,
      "byteOffset": 3904008,
      "componentType": 5125,
      "count": 274605,
      "max": [
        65531
      ],
      "min": [
        0
      ],
      "type": "SCALAR"
    },
    {
      "bufferView": 2,
      "byteOffset": 6291072,
      "componentType": 5126,
      "count": 49582,
      "max": [
        36.797351837158203,
        -302.31246948242188,
        467.02883911132812
      ],
      "min": [
        -79.734619140625,
        -638.82763671875,
        10.197815895080566
      ],
      "type": "VEC3"
    },
    {
      "bufferView": 2,
      "byteOffset": 6886056,
      "componentType": 5126,
      "count": 49582,
      "max": [
        0.99999767541885376,
        0.99993646144866943,
        0.99997222423553467
      ],
      "min": [
        -0.99999094009399414,
        -0.99945515394210815,
        -0.99999129772186279
      ],
      "type": "VEC3"
    },
    {
      "bufferView": 3,
      "byteOffset": 4194048,
      "componentType": 5126,
      "count": 49582,
      "max": [
        0.99928480386734009,
        0.98521119356155396,
        0.99997127056121826,
        1
      ],
      "min": [
        -0.99999475479125977,
        -0.99645358324050903,
        -0.99971187114715576,
        1
      ],
      "type": "VEC4"
    },
    {
      "bufferView": 1,
      "byteOffset": 2097024,
      "componentType": 5126,
      "count": 49582,
      "max": [
        0.99800801277160645,
        0.92573601007461548
      ],
      "min": [
        0.0019920000340789557,
        0.0064030000939965248
      ],
      "type": "VEC2"
    },
    {
      "bufferView": 0,
      "byteOffset": 5002428,
      "componentType": 5125,
      "count": 124584,
      "max": [
        49581
      ],
      "min": [
        0
      ],
      "type": "SCALAR"
    }
  ],
  "asset": {
    "extras": {
      "author": "IUPUI Center for Digital Scholarship (https://sketchfab.com/iupuicds)",
      "license": "CC-BY-4.0 (http://creativecommons.org/licenses/by/4.0/)",
      "source": "https://sketchfab.com/3d-models/boot-990917a7e8114ad3b396d142cec352d4",
      "title": "Boot"
    },
    "generator": "Sketchfab-7.30.0",
    "version": "2.0"
  },
  "bufferViews": [
    {
      "buffer": 0,
      "byteLength": 5500764,
      "byteOffset": 0,
      "name": "floatBufferViews",
      "target": 34963
    },
    {
      "buffer": 0,
      "byteLength": 2493680,
      "byteOffset": 5500764,
      "byteStride": 8,
      "name": "floatBufferViews",
      "target": 34962
    },
    {
      "buffer": 0,
      "byteLength": 7481040,
      "byteOffset": 7994444,
      "byteStride": 12,
      "name": "floatBufferViews",
      "target": 34962
    },
    {
      "buffer": 0,
      "byteLength": 4987360,
      "byteOffset": 15475484,
      "byteStride": 16,
      "name": "floatBufferViews",
      "target": 34962
    }
  ],
  "buffers": [
    {
      "byteLength": 20462844,
      "uri": "scene.bin"
    }
  ],
  "images": [
    {
      "uri": "textures/material_0_baseColor.png"
    }
  ],
  "materials": [
    {
      "doubleSided": true,
      "name": "material_0",
      "pbrMetallicRoughness": {
        "baseColorFactor": [
          1,
          1,
          1,
          1
        ],
        "baseColorTexture": {
          "index": 0,
          "texCoord": 0
        },
        "metallicFactor": 0,
        "roughnessFactor": 0.46850895737156723
      }
    }
  ],
  "meshes": [
    {
      "primitives": [
        {
          "attributes": {
            "NORMAL": 1,
            "POSITION": 0,
            "TANGENT": 2,
            "TEXCOORD_0": 3
          },
          "indices": 4,
          "material": 0,
          "mode": 4
        }
      ]
    },
    {
      "primitives": [
        {
          "attributes": {
            "NORMAL": 6,
            "POSITION": 5,
            "TANGENT": 7,
            "TEXCOORD_0": 8
          },
          "indices": 9,
          "material": 0,
          "mode": 4
        }
      ]
    },
    {
      "primitives": [
        {
          "attributes": {
            "NORMAL": 11,
            "POSITION": 10,
            "TANGENT": 12,
            "TEXCOORD_0": 13
          },
          "indices": 14,
          "material": 0,
          "mode": 4
        }
      ]
    },
    {
      "primitives": [
        {
          "attributes": {
            "NORMAL": 16,
            "POSITION": 15,
            "TANGENT": 17,
            "TEXCOORD_0": 18
          },
          "indices": 19,
          "material": 0,
          "mode": 4
        }
      ]
    },
    {
      "primitives": [
        {
          "attributes": {
            "NORMAL": 21,
            "POSITION": 20,
            "TANGENT": 22,
            "TEXCOORD_0": 23
          },
          "indices": 24,
          "material": 0,
          "mode": 4
        }
      ]
    }
  ],
  "nodes": [
    {
      "children": [
        1
      ],
      "name": "RootNode (gltf orientation matrix)",
      "rotation": [
        -0.70710678118654746,
        -0,
        -0,
        0.70710678118654757
      ]
    },
    {
      "children": [
        2
      ],
      "name": "RootNode (model correction matrix)"
    },
    {
      "children": [
        3,
        4,
        5,
        6,
        7
      ],
      "name": "Boot_N.obj.cleaner.materialmerger.gles"
    },
    {
      "mesh": 0,
      "name": ""
    },
    {
      "mesh": 1,
      "name": ""
    },
    {
      "mesh": 2,
      "name": ""
    },
    {
      "mesh": 3,
      "name": ""
    },
    {
      "mesh": 4,
      "name": ""
    }
  ],
  "samplers": [
    {
      "magFilter": 9729,
      "minFilter": 9987,
      "wrapS": 10497,
      "wrapT": 10497
    }
  ],
  "scene": 0,
  "scenes": [
    {
      "name": "OSG_Scene",
      "nodes": [
        0
      ]
    }
  ],
  "textures": [
    {
      "sampler": 0,
      "source": 0
    }
  ]
}

